<?xml version="1.0" standalone="no"?>
<!DOCTYPE svg PUBLIC "-//W3C//DTD SVG 1.1//EN" "http://www.w3.org/Graphics/SVG/1.1/DTD/svg11.dtd" >
<svg xmlns="http://www.w3.org/2000/svg">
<metadata></metadata>
<defs>
<font id="knockout_htf90-ultmtwelterwRg" horiz-adv-x="980" >
<font-face units-per-em="2048" ascent="1638" descent="-410" />
<missing-glyph horiz-adv-x="329" />
<glyph horiz-adv-x="2048" />
<glyph horiz-adv-x="2048" />
<glyph unicode="&#xd;" horiz-adv-x="2048" />
<glyph unicode=" "  horiz-adv-x="329" />
<glyph unicode="&#x09;" horiz-adv-x="329" />
<glyph unicode="&#xa0;" horiz-adv-x="329" />
<glyph unicode="!" horiz-adv-x="456" d="M57 829v535h342v-535l-104 -407h-133zM80 0v311h293v-311h-293z" />
<glyph unicode="&#x22;" horiz-adv-x="759" d="M20 918l80 446h285l-137 -446h-228zM338 918l127 446h291l-185 -446h-233z" />
<glyph unicode="#" horiz-adv-x="1337" d="M31 330v172h295l69 360h-303v172h336l64 330h190l-64 -330h259l63 330h193l-64 -330h262v-172h-295l-67 -360h299v-172h-332l-64 -330h-192l63 330h-258l-63 -330h-193l64 330h-262zM518 502h258l68 360h-258z" />
<glyph unicode="$" horiz-adv-x="970" d="M35 451h340q-4 -101 24 -149t78 -48q88 0 88 86q0 37 -28 72.5t-72.5 67t-98.5 66t-108 77t-98.5 91t-72.5 116.5t-28 147q0 154 79.5 261.5t232.5 143.5v170h245v-161q86 -15 149 -56t98.5 -103t51 -137t11.5 -165h-342q5 94 -13 137t-69 43q-38 0 -59 -23.5t-21 -62.5 q0 -36 28 -70t72.5 -64t98.5 -63t108 -75t98.5 -91t72.5 -120t28 -154q0 -149 -80.5 -262t-231.5 -148v-165h-245v161q-187 27 -267.5 146t-68.5 332z" />
<glyph unicode="%" horiz-adv-x="1335" d="M35 932v201q0 115 73 190.5t201 75.5t201.5 -75.5t73.5 -190.5v-201q0 -113 -73.5 -187.5t-201.5 -74.5t-201 74.5t-73 187.5zM141 37l930 1382l119 -92l-930 -1382zM260 901q0 -22 13.5 -35.5t35.5 -13.5q20 0 33.5 13.5t13.5 35.5v264q0 22 -13.5 35.5t-33.5 13.5 q-22 0 -35.5 -13.5t-13.5 -35.5v-264zM756 229v201q0 114 73 189t201 75t201.5 -75t73.5 -189v-201q0 -113 -73.5 -188.5t-201.5 -75.5t-201 75.5t-73 188.5zM983 199q0 -22 12.5 -35.5t34.5 -13.5t34.5 13.5t12.5 35.5v264q0 22 -12.5 35.5t-34.5 13.5t-34.5 -13.5 t-12.5 -35.5v-264z" />
<glyph unicode="&#x26;" horiz-adv-x="1271" d="M33 330q0 126 69 233t195 176q-80 130 -80 271q0 91 33.5 166t90 123t129 74t153.5 26q151 0 247.5 -87.5t96.5 -215.5q0 -119 -59 -215.5t-210 -190.5q45 -82 115 -186q30 80 37 207h280q0 -254 -129 -443q43 -37 80 -37q41 0 41 66v49h144v-121q0 -112 -61.5 -186 t-168.5 -74q-120 0 -256 119q-78 -58 -157 -88.5t-181 -30.5q-194 0 -301.5 104.5t-107.5 260.5zM373 389q0 -52 32 -85.5t82 -33.5q43 0 72 19q-87 110 -137 219q-49 -45 -49 -119zM555 1004q0 -57 29 -113q84 55 84 141q0 32 -13 51t-37 19q-30 0 -46.5 -26.5t-16.5 -71.5 z" />
<glyph unicode="'" horiz-adv-x="436" d="M41 918l74 446h329l-192 -446h-211z" />
<glyph unicode="(" horiz-adv-x="714" d="M156 610q0 176 52 351t168 344.5t283 291.5l91 -100q-152 -191 -217.5 -410t-65.5 -477q0 -257 65.5 -475t217.5 -409l-91 -103q-167 123 -283 293t-168 344.5t-52 349.5z" />
<glyph unicode=")" horiz-adv-x="714" d="M-29 -274q152 191 217.5 409t65.5 475q0 258 -65.5 477t-217.5 410l90 100q167 -122 283 -291.5t168.5 -344.5t52.5 -351q0 -175 -52.5 -349.5t-168.5 -344.5t-283 -293z" />
<glyph unicode="*" horiz-adv-x="661" d="M32 1134q-5 11 1 25l55 94q6 13 19 14.5t22 -5.5q69 -41 145 -115q-28 106 -28 184q0 12 7 22.5t21 10.5h111q14 0 20.5 -10t6.5 -23q0 -71 -27 -182q90 87 145 115q9 7 22.5 5.5t20.5 -12.5l56 -96q6 -13 1 -23.5t-16 -17.5q-61 -35 -172 -67q109 -29 172 -68 q28 -16 17 -41l-56 -96q-7 -11 -21 -12t-22 6q-71 43 -145 114q29 -113 29 -184q0 -12 -7.5 -22.5t-21.5 -10.5h-111q-12 0 -19 10.5t-7 22.5q0 75 26 182q-74 -74 -145 -116q-29 -14 -43 8l-55 96q-5 12 0 23t16 16q59 35 170 70q-105 28 -172 67q-10 5 -15 16z" />
<glyph unicode="+" horiz-adv-x="788" d="M41 578v235h227v246h252v-246h228v-235h-228v-246h-252v246h-227z" />
<glyph unicode="," horiz-adv-x="376" d="M39 0v328h299v-256q0 -299 -299 -299v82q121 0 121 145h-121z" />
<glyph unicode="-" horiz-adv-x="563" d="M20 459v266h523v-266h-523z" />
<glyph unicode="." horiz-adv-x="376" d="M39 0v328h299v-328h-299z" />
<glyph unicode="/" horiz-adv-x="546" d="M6 -131l354 1626h181l-355 -1626h-180z" />
<glyph unicode="0" horiz-adv-x="993" d="M45 391v582q0 91 28 167.5t82 134.5t141.5 91t199.5 33q113 0 200.5 -33t142 -91t82 -134.5t27.5 -167.5v-582q0 -90 -27.5 -166.5t-82 -135t-142 -91.5t-200.5 -33q-220 0 -335.5 119.5t-115.5 306.5zM420 373q0 -90 76 -90q77 0 77 90v618q0 90 -77 90q-76 0 -76 -90 v-618z" />
<glyph unicode="1" horiz-adv-x="526" d="M76 0v1214q76 0 111.5 42.5t35.5 107.5h232v-1364h-379z" />
<glyph unicode="2" horiz-adv-x="933" d="M18 0v98q0 164 80.5 303.5t268.5 313.5q102 94 142 159t40 119q0 101 -80 101t-80 -115v-96h-344v131q0 169 108.5 277t321.5 108q96 0 171 -20.5t123.5 -56t80 -85.5t44.5 -106t13 -121q0 -127 -65.5 -240.5t-223.5 -247.5q-153 -130 -153 -203h420v-319h-867z" />
<glyph unicode="3" horiz-adv-x="937" d="M31 350v109h344v-92q0 -51 21 -74t65 -23q76 0 76 101v112q0 36 -16 53t-52 17h-111v268h111q36 0 52 17t16 53v102q0 101 -76 101q-44 0 -65 -23t-21 -74v-92h-344v109q0 77 26 145t76.5 122.5t135 86t192.5 31.5q234 0 342 -107.5t108 -287.5v-21q0 -106 -47.5 -186 t-158.5 -99q206 -52 206 -284v-54q0 -86 -24.5 -155.5t-76 -124.5t-140.5 -85t-209 -30q-108 0 -192.5 31.5t-135 86t-76.5 122.5t-26 145z" />
<glyph unicode="4" horiz-adv-x="972" d="M16 262v279l484 823h334v-825h122v-277h-122v-262h-359v262h-459zM324 539h151v268z" />
<glyph unicode="5" horiz-adv-x="929" d="M27 336v115h344v-76q0 -54 19.5 -79.5t62.5 -25.5q79 0 79 95v204q0 48 -15 74.5t-60 26.5q-69 0 -78 -76l-334 37l33 733h817q-14 -155 -57 -236t-125 -81h-318l-10 -242q78 115 233 115q140 0 214.5 -88t74.5 -232v-240q0 -172 -117 -283.5t-333 -111.5 q-215 0 -322.5 102t-107.5 269z" />
<glyph unicode="6" horiz-adv-x="976" d="M45 391v561q0 94 28.5 174t84 141.5t146 96.5t206.5 35q114 0 199 -32t132.5 -87.5t70 -121.5t22.5 -144v-88h-348v63q0 55 -17.5 80t-62.5 25q-86 0 -86 -103v-286q46 59 106 92.5t152 33.5q133 0 201.5 -84.5t68.5 -222.5v-133q0 -184 -121 -304t-338 -120 q-113 0 -199.5 32.5t-139 91t-79 134.5t-26.5 166zM420 356q0 -38 18 -62t58 -24q77 0 77 86v162q0 86 -77 86q-40 0 -58 -24t-18 -62v-162z" />
<glyph unicode="7" horiz-adv-x="856" d="M16 1028v336h856v-182q-170 -295 -240.5 -565t-70.5 -617h-420q0 274 107 569.5t258 458.5h-490z" />
<glyph unicode="8" horiz-adv-x="985" d="M41 360v37q0 201 164 291q-82 35 -123 112t-41 175v29q0 167 119 281t332 114q109 0 196.5 -32t142.5 -86.5t84 -125.5t29 -151v-29q0 -98 -41 -175t-123 -112q164 -90 164 -291v-37q0 -80 -29 -150.5t-84 -125.5t-142.5 -87t-196.5 -32q-108 0 -195 32t-142 87 t-84.5 126t-29.5 150zM416 365q0 -91 76 -91q77 0 77 91v120q0 90 -77 90q-76 0 -76 -90v-120zM416 879q0 -91 76 -91q77 0 77 91v120q0 91 -77 91q-76 0 -76 -91v-120z" />
<glyph unicode="9" horiz-adv-x="991" d="M41 350v70h348v-41q0 -57 18.5 -83t69.5 -26q94 0 94 107v266q-50 -62 -102 -93.5t-141 -31.5q-141 0 -213 83.5t-72 221.5v150q0 186 121 306t338 120q220 0 332 -118.5t112 -307.5v-559q0 -75 -16 -141t-51 -123t-86.5 -98t-127.5 -64t-169 -23q-115 0 -204 31t-143 85 t-81 122t-27 147zM418 829q0 -38 18 -62t58 -24q77 0 77 86v179q0 86 -77 86q-40 0 -58 -24t-18 -62v-179z" />
<glyph unicode=":" horiz-adv-x="417" d="M59 0v328h299v-328h-299zM59 598v328h299v-328h-299z" />
<glyph unicode=";" horiz-adv-x="417" d="M59 0v328h299v-256q0 -299 -299 -299v82q121 0 121 145h-121zM59 598v328h299v-328h-299z" />
<glyph unicode="&#x3c;" d="M78 653v60l770 518v-320l-340 -229l340 -229v-320z" />
<glyph unicode="=" horiz-adv-x="780" d="M45 412v235h690v-235h-690zM45 772v236h690v-236h-690z" />
<glyph unicode="&#x3e;" d="M133 133v320l340 229l-340 229v320l770 -518v-60z" />
<glyph unicode="?" horiz-adv-x="886" d="M29 897v100q0 176 107 289t308 113q208 0 317 -100.5t109 -260.5q0 -117 -53 -208t-172 -185q-69 -55 -95 -108t-26 -115h-258q0 127 32.5 212t123.5 181q92 98 92 184q0 95 -76 95q-78 0 -78 -109v-88h-331zM246 0v311h295v-311h-295z" />
<glyph unicode="@" horiz-adv-x="1460" d="M31 674q0 196 94 361.5t260.5 263.5t368.5 98q136 0 251 -38.5t192.5 -100.5t132 -142t79.5 -162.5t25 -162.5q0 -90 -27 -173.5t-77 -150.5t-129 -107.5t-175 -40.5q-95 0 -154 49t-59 128q-87 -156 -233 -156q-108 0 -173 66.5t-65 173.5q0 69 30 146.5t81 143.5 t126.5 109t157.5 43q67 0 108.5 -32t49.5 -87l35 101h219l-145 -422q-22 -68 -3 -104t72 -36q84 0 153.5 95.5t69.5 246.5q0 214 -154.5 354t-387.5 140q-167 0 -302.5 -82t-209.5 -218.5t-74 -297.5t74 -297.5t209.5 -218.5t302.5 -82q245 0 405 147l78 -92 q-92 -82 -218.5 -127t-264.5 -45q-202 0 -368.5 94.5t-260.5 257t-94 357.5zM563 563q0 -41 20 -65.5t54 -24.5q53 0 96 45.5t66 108.5l59 184q0 39 -19 63.5t-57 24.5q-58 0 -111 -60t-80.5 -137t-27.5 -139z" />
<glyph unicode="A" d="M-20 0l276 1364h471l270 -1364h-403l-27 190h-184l-33 -190h-370zM424 442h111l-48 410z" />
<glyph unicode="B" horiz-adv-x="1015" d="M51 0v1364h561q96 0 167.5 -25t113.5 -69.5t62 -101.5t20 -126v-81q0 -230 -209 -267q113 -28 161 -94t48 -170v-108q0 -69 -20 -126t-62 -101.5t-113.5 -69.5t-167.5 -25h-561zM463 289h61q64 0 64 69v138q0 67 -64 67h-61v-274zM463 799h61q64 0 64 67v140q0 67 -64 67 h-61v-274z" />
<glyph unicode="C" horiz-adv-x="1028" d="M41 414v536q0 197 132 323t374 126q216 0 335 -120t119 -306v-137h-383v147q0 47 -16 72.5t-63 25.5q-45 0 -61.5 -26t-16.5 -72v-602q0 -46 16.5 -72t61.5 -26q47 0 63 25.5t16 72.5v147h383v-137q0 -185 -119 -305.5t-335 -120.5q-242 0 -374 126t-132 323z" />
<glyph unicode="D" horiz-adv-x="1052" d="M51 0v1364h490q122 0 214.5 -34t148.5 -95t84 -141.5t28 -178.5v-501q0 -198 -116 -306t-359 -108h-490zM461 313h53q53 0 72.5 29t19.5 90v500q0 61 -19.5 91t-72.5 30h-53v-740z" />
<glyph unicode="E" horiz-adv-x="905" d="M51 0v1364h826v-315h-414v-209h264v-289h-264v-219h414v-332h-826z" />
<glyph unicode="F" horiz-adv-x="884" d="M51 0v1364h819v-317h-407v-252h264v-306h-264v-489h-412z" />
<glyph unicode="G" horiz-adv-x="1056" d="M41 416v497q0 224 128.5 355t373.5 131q98 0 177 -23.5t132 -63t88.5 -94t51.5 -115t16 -126.5v-141h-400v159q0 86 -73 86q-74 0 -74 -86v-630q0 -36 19 -59t59 -23q79 0 79 82v118h-83v222h479v-705h-230l-41 133q-36 -78 -111 -123t-163 -45q-209 0 -318.5 124 t-109.5 327z" />
<glyph unicode="H" horiz-adv-x="1112" d="M51 0v1364h412v-539h186v539h412v-1364h-412v485h-186v-485h-412z" />
<glyph unicode="I" horiz-adv-x="512" d="M51 0v1364h410v-1364h-410z" />
<glyph unicode="J" horiz-adv-x="985" d="M23 391v166h372v-203q0 -33 18 -52t50 -19q31 0 49 19.5t18 51.5v1010h410v-973q0 -194 -121.5 -310t-335.5 -116q-237 0 -348.5 112.5t-111.5 313.5z" />
<glyph unicode="K" horiz-adv-x="1075" d="M51 0v1364h412v-555l184 555h414l-232 -604l242 -760h-432l-125 508l-51 -113v-395h-412z" />
<glyph unicode="L" horiz-adv-x="854" d="M51 0v1364h410v-1034h391v-330h-801z" />
<glyph unicode="M" horiz-adv-x="1421" d="M51 0v1364h533l102 -481l37 -185l35 185l100 481h512v-1364h-395v737l-51 -227l-113 -510h-268l-103 510l-47 227v-737h-342z" />
<glyph unicode="N" horiz-adv-x="1083" d="M51 0v1364h355l196 -457l68 -159v616h362v-1364h-340l-190 444l-86 197v-641h-365z" />
<glyph unicode="O" horiz-adv-x="1056" d="M41 391v582q0 181 134 302.5t353 121.5q218 0 353 -121.5t135 -302.5v-582q0 -182 -134.5 -304t-353.5 -122q-220 0 -353.5 121.5t-133.5 304.5zM461 354q0 -34 17.5 -52.5t49.5 -18.5t50 18.5t18 52.5v656q0 33 -18 52t-50 19t-49.5 -19t-17.5 -52v-656z" />
<glyph unicode="P" horiz-adv-x="995" d="M51 0v1364h557q162 0 264.5 -96.5t102.5 -261.5v-183q0 -165 -102.5 -261.5t-264.5 -96.5h-145v-465h-412zM463 733h61q64 0 64 66v207q0 67 -64 67h-61v-340z" />
<glyph unicode="Q" horiz-adv-x="1064" d="M41 391v582q0 183 133.5 304.5t351.5 121.5q220 0 354 -121.5t134 -304.5v-553q0 -84 -17 -125q19 -13 34 -17t54 -4v-274q-45 -35 -141 -35q-57 0 -108.5 20t-83.5 54q-102 -74 -252 -74q-105 0 -192.5 33.5t-145 91t-89.5 135t-32 166.5zM459 354q0 -32 18 -51.5 t49 -19.5q29 0 47 12l-57 55l80 121v539q0 34 -19 52.5t-51 18.5q-31 0 -49 -19t-18 -52v-656z" />
<glyph unicode="R" horiz-adv-x="1026" d="M51 0v1364h549q166 0 270.5 -85.5t104.5 -225.5v-197q0 -69 -41.5 -121.5t-132.5 -75.5q88 -17 134 -70t46 -124v-238q0 -97 47 -221v-6h-348q-40 0 -63 65t-23 146v217q0 88 -78 88h-55v-516h-410zM461 772h61q62 0 62 68v166q0 36 -15 51.5t-47 15.5h-61v-301z" />
<glyph unicode="S" horiz-adv-x="966" d="M16 451h367q-1 -14 -1 -27q0 -80 22 -117q25 -43 75 -43q86 0 86 86q0 37 -29 72t-75 65.5t-101.5 64t-111 74.5t-101.5 89t-75 115.5t-29 146.5q0 88 27.5 162.5t82 133t145 91.5t208.5 33q103 0 182 -27t128 -71.5t79.5 -106.5t40.5 -126q7 -46 7 -96q0 -20 -1 -40 h-364v25q0 67 -14 102q-16 41 -66 41q-33 0 -53.5 -22t-20.5 -64q0 -32 22.5 -62t59 -54t83.5 -53t96 -57.5t96 -69t83.5 -85t59 -108t22.5 -136.5q0 -66 -16 -126.5t-51 -115t-86.5 -94t-127.5 -63t-169 -23.5q-264 0 -378 118q-104 107 -103 322q0 22 1 46z" />
<glyph unicode="T" horiz-adv-x="952" d="M6 1034v330h940v-330h-264v-1034h-412v1034h-264z" />
<glyph unicode="U" horiz-adv-x="1048" d="M49 375v989h416v-993q0 -34 17.5 -54t47.5 -20q33 0 50.5 20t17.5 54v993h401v-989q0 -190 -118.5 -300t-350.5 -110q-231 0 -356 111t-125 299z" />
<glyph unicode="V" horiz-adv-x="1005" d="M-20 1364h417l117 -782l109 782h397l-322 -1364h-409z" />
<glyph unicode="W" horiz-adv-x="1415" d="M-20 1364h401l102 -729l99 729h297l102 -729l104 729h355l-254 -1364h-369l-106 588l-111 -588h-360z" />
<glyph unicode="X" horiz-adv-x="1017" d="M-16 0l264 684l-254 680h424l96 -387l104 387h396l-262 -684l252 -680h-424l-97 383l-102 -383h-397z" />
<glyph unicode="Y" horiz-adv-x="1032" d="M-20 1364h430l125 -444l108 444h414l-342 -852v-512h-410v530z" />
<glyph unicode="Z" horiz-adv-x="933" d="M-4 0v100l450 934h-421v330h899v-100l-443 -924h426v-340h-911z" />
<glyph unicode="[" horiz-adv-x="714" d="M195 -342v1907h477v-201h-238v-1505h238v-201h-477z" />
<glyph unicode="\" horiz-adv-x="587" d="M35 1495h180l354 -1626h-180z" />
<glyph unicode="]" horiz-adv-x="714" d="M43 -141h238v1505h-238v201h477v-1907h-477v201z" />
<glyph unicode="^" horiz-adv-x="663" d="M12 1110v84q53 0 100.5 53.5t75.5 153.5h287q27 -100 74.5 -153.5t101.5 -53.5v-84q-43 -14 -100 -14q-93 0 -147 39t-78 131q-24 -91 -79 -130.5t-147 -39.5q-45 0 -88 14z" />
<glyph unicode="_" horiz-adv-x="768" d="M0 0h768v-266h-768v266z" />
<glyph unicode="`" horiz-adv-x="458" d="M-16 1425h325l88 -307h-207z" />
<glyph unicode="a" horiz-adv-x="835" d="M8 254v10q0 133 101.5 207t330.5 131v123q0 30 -8.5 44.5t-34.5 14.5q-14 0 -22.5 -7t-12 -28.5t-4 -40t-0.5 -61.5h-315v17q0 360 373 360q179 0 273.5 -91.5t94.5 -238.5v-413q0 -28 8 -40t33 -12v-237h-106q-87 0 -131.5 31.5t-71.5 107.5q-71 -147 -244 -147 q-125 0 -194.5 70t-69.5 200zM344 270q0 -77 47 -77q30 0 39.5 16t9.5 49v197q-54 -17 -75 -49t-21 -87v-49z" />
<glyph unicode="b" horiz-adv-x="858" d="M45 0v1364h344v-416q43 42 84 59t102 17q108 0 177 -80t69 -203v-456q0 -143 -69 -222t-211 -79q-75 0 -122.5 26t-84.5 86l-10 -96h-279zM389 313q0 -73 47 -73q49 0 49 73v377q0 74 -49 74q-47 0 -47 -74v-377z" />
<glyph unicode="c" horiz-adv-x="819" d="M37 332v342q0 157 101.5 253.5t279.5 96.5q195 0 285 -105q85 -99 85 -300v-23h-307v102q0 43 -12 61.5t-41 18.5q-31 0 -43 -17t-12 -61v-395q0 -43 12 -60.5t43 -17.5q29 0 41 18.5t12 63.5v103h307v-23q0 -203 -84 -301q-90 -104 -286 -104q-178 0 -279.5 95.5 t-101.5 252.5z" />
<glyph unicode="d" horiz-adv-x="858" d="M37 287v454q0 122 73.5 202.5t182.5 80.5q63 0 98 -13.5t78 -58.5v412h344v-1364h-278l-11 96q-38 -60 -86 -86t-123 -26q-141 0 -209.5 79.5t-68.5 223.5zM373 313q0 -73 47 -73q49 0 49 73v377q0 74 -49 74q-47 0 -47 -74v-377z" />
<glyph unicode="e" horiz-adv-x="831" d="M37 332v342q0 150 103.5 249t279.5 99q177 0 280 -98.5t103 -249.5v-215h-432v-158q0 -38 9.5 -56t43.5 -18q37 0 47 27t10 121h322q0 -391 -383 -391q-177 0 -280 98.5t-103 249.5zM371 602h98v105q0 71 -49 71t-49 -71v-105z" />
<glyph unicode="f" horiz-adv-x="647" d="M16 745v248h129v21q0 84 19.5 146t64 109t122.5 71t190 24h96v-242h-27q-70 0 -96.5 -25t-26.5 -83v-21h160v-248h-155v-745h-347v745h-129z" />
<glyph unicode="g" horiz-adv-x="849" d="M14 -84q0 53 46 101t122 71q-153 65 -153 166q0 62 54.5 108t139.5 52q-82 29 -133 103t-51 165v6q0 142 108.5 239t274.5 97q36 0 77 -7t48 -7q59 0 77.5 22t18.5 86h246q6 -55 6 -88q0 -60 -35 -99.5t-88 -39.5q-31 0 -74 22q107 -96 107 -227v-8q0 -139 -100 -225 t-283 -86q-28 0 -64 4q-75 0 -75 -43q0 -15 12 -24.5t48.5 -16t100.5 -6.5q410 0 410 -273v-10q0 -141 -112.5 -229t-313.5 -88q-195 0 -304.5 63.5t-109.5 167.5v4zM309 -16v-7q0 -29 36 -44t97 -15q129 0 129 59v7q0 59 -129 59q-61 0 -97 -15t-36 -44zM369 629 q0 -72 57 -72q55 0 55 72v110q0 72 -55 72q-57 0 -57 -72v-110z" />
<glyph unicode="h" horiz-adv-x="876" d="M45 0v1364h346v-453q45 59 95 85t124 26q105 0 165.5 -66.5t60.5 -179.5v-776h-344v690q0 74 -48 74q-53 0 -53 -74v-690h-346z" />
<glyph unicode="i" horiz-adv-x="436" d="M45 0v1006h346v-1006h-346zM45 1073v291h346v-291h-346z" />
<glyph unicode="j" horiz-adv-x="434" d="M-100 -66h41q60 0 82 24t22 77v971h346v-959q0 -176 -95 -265t-300 -89h-96v241zM45 1075v289h346v-289h-346z" />
<glyph unicode="k" horiz-adv-x="866" d="M45 0v1364h346v-731l131 375h352l-188 -422l186 -586h-344l-96 362l-41 -112v-250h-346z" />
<glyph unicode="l" horiz-adv-x="436" d="M45 0v1364h346v-1364h-346z" />
<glyph unicode="m" horiz-adv-x="1308" d="M45 0v1006h295l12 -132q84 148 240 148q76 0 127.5 -43t73.5 -119q39 80 113 121t155 41q103 0 155 -65t52 -181v-776h-344v690q0 74 -47 74q-54 0 -54 -74v-690h-331v690q0 33 -13 53.5t-37 20.5q-51 0 -51 -74v-690h-346z" />
<glyph unicode="n" horiz-adv-x="876" d="M45 0v1006h297l12 -132q81 148 244 148q106 0 172 -67t66 -179v-776h-344v690q0 74 -48 74q-53 0 -53 -74v-690h-346z" />
<glyph unicode="o" horiz-adv-x="841" d="M37 332v342q0 150 103.5 249t279.5 99q177 0 281 -99.5t104 -248.5v-342q0 -149 -104 -248.5t-281 -99.5q-176 0 -279.5 99t-103.5 249zM371 299q0 -72 49 -72t49 72v408q0 71 -49 71t-49 -71v-408z" />
<glyph unicode="p" horiz-adv-x="858" d="M45 -301v1307h279l10 -107q90 123 233 123q254 0 254 -305v-457q0 -134 -63 -206t-176 -72q-61 0 -105.5 16.5t-87.5 54.5v-354h-344zM389 313q0 -73 47 -73q49 0 49 73v377q0 74 -49 74q-47 0 -47 -74v-377z" />
<glyph unicode="q" horiz-adv-x="858" d="M37 260v445q0 148 67 232.5t201 84.5q141 0 219 -123l11 107h278v-1307h-344v358q-43 -40 -84.5 -57.5t-101.5 -17.5q-113 0 -179.5 72t-66.5 206zM373 313q0 -73 47 -73q49 0 49 73v377q0 74 -49 74q-47 0 -47 -74v-377z" />
<glyph unicode="r" horiz-adv-x="665" d="M45 0v1006h295l18 -181q23 117 103 165q52 31 116 31q35 0 74 -9v-326q-50 9 -89 9q-12 0 -24 -1q-46 -4 -75.5 -13t-46 -30.5t-22 -44t-5.5 -53.5v-553h-344z" />
<glyph unicode="s" horiz-adv-x="784" d="M14 330h303q0 -69 16 -96t52 -27q28 0 44.5 15t16.5 44q0 27 -23 50t-60.5 41t-82 37.5t-89.5 47t-82.5 62t-60.5 89.5t-23 124q0 142 100.5 224.5t269.5 82.5q187 0 281 -87q88 -82 88 -237v-20h-303q0 65 -12.5 90t-47.5 25q-53 0 -53 -54q0 -27 23 -50t60 -42.5 t81.5 -40.5t89 -49t81.5 -63t60 -88.5t23 -118.5q0 -56 -21.5 -108.5t-64 -97.5t-116.5 -72t-169 -27q-202 0 -294 88q-87 84 -87 241v17z" />
<glyph unicode="t" horiz-adv-x="638" d="M10 745v248h142v181l333 73v-254h156v-248h-156v-430q0 -183 66 -315h-356q-31 60 -43.5 131.5t-12.5 183.5v430h-129z" />
<glyph unicode="u" horiz-adv-x="882" d="M45 229v777h344v-693q0 -73 49 -73q51 0 51 73v693h347v-1006h-297l-13 131q-81 -147 -243 -147q-107 0 -172.5 66.5t-65.5 178.5z" />
<glyph unicode="v" horiz-adv-x="804" d="M-18 1006h342l67 -424l23 -166l20 166l66 424h325l-250 -1006h-346z" />
<glyph unicode="w" horiz-adv-x="1175" d="M-18 1006h333l56 -383l22 -166l23 166l57 383h250l57 -383l23 -166l22 166l58 383h317l-211 -1006h-340l-53 324l-21 163l-22 -163l-53 -324h-316z" />
<glyph unicode="x" horiz-adv-x="825" d="M-12 0l213 492l-213 514h344l82 -291l78 291h337l-213 -476l213 -530h-344l-77 270l-82 -270h-338z" />
<glyph unicode="y" horiz-adv-x="847" d="M-10 1006h350l63 -420l23 -166l20 166l62 420h334l-236 -924q-57 -220 -144.5 -304.5t-260.5 -84.5h-135v270h43q66 0 89.5 15t34.5 59l3 8z" />
<glyph unicode="z" horiz-adv-x="722" d="M0 0v123l319 606h-301v277h703v-123l-315 -607h303v-276h-709z" />
<glyph unicode="{" horiz-adv-x="698" d="M111 545v133h67q86 0 120 25t34 83q0 39 -27.5 96t-60.5 109t-60.5 128.5t-27.5 150.5q0 126 91 210.5t253 84.5h108v-201h-47q-60 0 -86 -29t-26 -86q0 -70 24.5 -138t49 -128t24.5 -109q0 -107 -42 -160.5t-167 -78.5q65 -13 106.5 -33t64 -51t30.5 -66.5t8 -89.5 q0 -49 -24.5 -120.5t-49 -151.5t-24.5 -150q0 -57 25.5 -85.5t86.5 -28.5h47v-201h-108q-162 0 -253 84.5t-91 210.5q0 74 27.5 150.5t60.5 128t60.5 107.5t27.5 95q0 60 -34 85.5t-120 25.5h-67z" />
<glyph unicode="|" horiz-adv-x="317" d="M72 -131v1626h174v-1626h-174z" />
<glyph unicode="}" horiz-adv-x="698" d="M90 -141h47q61 0 87 28.5t26 85.5q0 70 -24.5 150t-49 151.5t-24.5 120.5q0 54 8 89.5t30 66.5t63.5 51t106.5 33q-65 13 -106.5 33t-63.5 50.5t-30 66t-8 89.5q0 49 24.5 109t49 128t24.5 138q0 57 -26 86t-87 29h-47v201h109q162 0 253 -84.5t91 -210.5 q0 -74 -27.5 -150.5t-60.5 -128.5t-60.5 -109t-27.5 -96q0 -58 33.5 -83t119.5 -25h68v-133h-68q-86 0 -119.5 -25.5t-33.5 -85.5q0 -39 27.5 -95t60.5 -107.5t60.5 -128t27.5 -150.5q0 -126 -91 -210.5t-253 -84.5h-109v201z" />
<glyph unicode="~" horiz-adv-x="669" d="M10 643q0 83 50 140t139 57q51 0 103.5 -21.5t92.5 -43t60 -21.5q57 0 57 53v24h121q29 -43 29 -108q0 -84 -46.5 -139.5t-142.5 -55.5q-50 0 -102.5 21.5t-92.5 43t-61 21.5q-57 0 -57 -53v-24h-119q-31 42 -31 106z" />
<glyph horiz-adv-x="376" d="M39 0v328h299v-256q0 -299 -299 -299v82q121 0 121 145h-121z" />
<glyph horiz-adv-x="768" d="M37 604v221h164v142q0 194 96 295.5t311 101.5h82v-242h-26q-58 0 -83.5 -34t-25.5 -101v-162h164v-221h-164v-239q0 -196 -96.5 -298t-311.5 -102h-81v242h26q109 0 109 137v260h-164z" />
<glyph horiz-adv-x="724" d="M39 0v328h299v-256q0 -299 -299 -299v82q121 0 121 145h-121zM387 0v328h299v-256q0 -299 -299 -299v82q121 0 121 145h-121z" />
<glyph unicode="&#x85;" horiz-adv-x="1114" d="M39 0v328h299v-328h-299zM408 0v328h299v-328h-299zM776 0v328h299v-328h-299z" />
<glyph horiz-adv-x="817" d="M-6 831v134q0 15 11 24.5t30 9.5q50 0 151 -9.5t156 -22.5q-13 50 -24 179.5t-11 176.5q0 18 10 29.5t25 11.5h135q14 0 24.5 -11.5t10.5 -29.5q0 -47 -11 -176.5t-24 -179.5q55 13 156 22.5t151 9.5q18 0 28.5 -9.5t10.5 -24.5v-134q0 -15 -10.5 -24.5t-28.5 -9.5 q-44 0 -150 10.5t-157 23.5q15 -46 28 -147.5t13 -173.5q0 -313 -35 -619q-3 -38 -34 -38h-78q-32 0 -35 38q-37 323 -37 619q0 71 14 172.5t29 148.5q-51 -13 -157 -23.5t-150 -10.5q-19 0 -30 9.5t-11 24.5z" />
<glyph horiz-adv-x="817" d="M-6 250v135q0 15 11.5 25t29.5 10q42 0 145 -11t154 -24q-27 106 -27 223q0 112 27 223q-51 -13 -153.5 -23.5t-145.5 -10.5q-19 0 -30 9.5t-11 24.5v134q0 15 11 24.5t30 9.5q50 0 151 -9.5t156 -22.5q-13 50 -24 179.5t-11 176.5q0 18 10 29.5t25 11.5h135 q14 0 24.5 -11.5t10.5 -29.5q0 -47 -11 -176.5t-24 -179.5q55 13 156 22.5t151 9.5q18 0 28.5 -9.5t10.5 -24.5v-134q0 -15 -10.5 -24.5t-28.5 -9.5q-43 0 -146 10.5t-155 23.5q29 -106 29 -223q0 -122 -29 -223q53 13 156 24t145 11q18 0 28.5 -10t10.5 -25v-135 q0 -14 -10.5 -24.5t-28.5 -10.5q-47 0 -149 10.5t-158 24.5q13 -50 24 -180.5t11 -178.5q0 -18 -10.5 -28t-24.5 -10h-135q-16 0 -25.5 10t-9.5 28q0 48 11 178.5t24 180.5q-56 -14 -158 -24.5t-149 -10.5q-18 0 -29.5 10.5t-11.5 24.5z" />
<glyph horiz-adv-x="663" d="M12 1118v84q53 0 100.5 53.5t75.5 153.5h287q27 -100 74.5 -153.5t101.5 -53.5v-84q-43 -14 -100 -14q-93 0 -147 39t-78 131q-24 -91 -79 -130.5t-147 -39.5q-45 0 -88 14z" />
<glyph horiz-adv-x="1947" d="M35 932v201q0 115 73 190.5t201 75.5t201.5 -75.5t73.5 -190.5v-201q0 -113 -73.5 -187.5t-201.5 -74.5t-201 74.5t-73 187.5zM141 37l930 1382l113 -92l-924 -1382zM260 901q0 -22 13.5 -35.5t35.5 -13.5q20 0 33.5 13.5t13.5 35.5v264q0 22 -13.5 35.5t-33.5 13.5 q-22 0 -35.5 -13.5t-13.5 -35.5v-264zM756 229v201q0 114 73 189t201 75t201.5 -75t73.5 -189v-201q0 -113 -73.5 -188.5t-201.5 -75.5t-201 75.5t-73 188.5zM983 199q0 -22 12.5 -35.5t34.5 -13.5t34.5 13.5t12.5 35.5v264q0 22 -12.5 35.5t-34.5 13.5t-34.5 -13.5 t-12.5 -35.5v-264zM1368 229v201q0 114 73 189t201 75t201.5 -75t73.5 -189v-201q0 -113 -73.5 -188.5t-201.5 -75.5t-201 75.5t-73 188.5zM1595 199q0 -22 12.5 -35.5t34.5 -13.5t35 13.5t13 35.5v264q0 22 -13 35.5t-35 13.5t-34.5 -13.5t-12.5 -35.5v-264z" />
<glyph horiz-adv-x="966" />
<glyph horiz-adv-x="495" d="M33 305v184q234 75 295 306h131q0 -148 -35 -240.5t-125 -157.5q90 -65 125 -157t35 -240h-131q-60 227 -295 305z" />
<glyph horiz-adv-x="1460" d="M51 414v501q0 98 28 178.5t84 141.5t148.5 95t214.5 34h904v-315h-414v-209h266v-289h-266v-219h414v-332h-904q-243 0 -359 108t-116 306zM461 432q0 -61 19.5 -90t72.5 -29h53v740h-53q-53 0 -72.5 -30t-19.5 -91v-500z" />
<glyph horiz-adv-x="933" />
<glyph horiz-adv-x="376" d="M41 815v256q0 299 299 299v-82q-121 0 -121 -145h121v-328h-299z" />
<glyph horiz-adv-x="376" d="M39 809v82q121 0 121 145h-121v328h299v-256q0 -299 -299 -299z" />
<glyph horiz-adv-x="724" d="M41 815v256q0 299 299 299v-82q-121 0 -121 -145h121v-328h-299zM389 815v256q0 299 299 299v-82q-121 0 -121 -145h121v-328h-299z" />
<glyph horiz-adv-x="724" d="M39 809v82q121 0 121 145h-121v328h299v-256q0 -299 -299 -299zM387 809v82q121 0 121 145h-121v328h299v-256q0 -299 -299 -299z" />
<glyph horiz-adv-x="686" d="M47 682q0 135 83 215t212 80q128 0 210.5 -80t82.5 -215q0 -136 -82.5 -215.5t-210.5 -79.5q-129 0 -212 79.5t-83 215.5z" />
<glyph horiz-adv-x="983" d="M109 459v266h768v-266h-768z" />
<glyph horiz-adv-x="1495" d="M109 459v266h1280v-266h-1280z" />
<glyph horiz-adv-x="669" d="M10 1245q0 83 50 140t139 57q51 0 103.5 -21.5t92.5 -43t60 -21.5q57 0 57 53v25h121q29 -44 29 -109q0 -84 -46.5 -139.5t-142.5 -55.5q-50 0 -102.5 22t-92.5 43.5t-61 21.5q-57 0 -57 -54v-24h-119q-31 42 -31 106z" />
<glyph horiz-adv-x="851" d="M20 1280v84h299v-84h-100v-377h-98v377h-101zM369 903v461h133l55 -234l16 -81l17 81l55 234h131v-461h-92v328l-22 -105l-56 -223h-74l-53 223l-22 105v-328h-88z" />
<glyph horiz-adv-x="784" />
<glyph horiz-adv-x="495" d="M37 0q0 148 35 240t125 157q-90 65 -125 157.5t-35 240.5h131q61 -231 295 -306v-184q-235 -78 -295 -305h-131z" />
<glyph horiz-adv-x="1335" d="M37 332v340q0 150 102 250t279 100q79 0 148.5 -32.5t109.5 -88.5q39 54 108.5 87.5t147.5 33.5q176 0 276.5 -99t100.5 -251v-213h-430v-158q0 -38 9.5 -56t43.5 -18q37 0 47 27t10 121h320q0 -201 -95.5 -296t-281.5 -95q-79 0 -149.5 33t-108.5 87 q-38 -55 -107.5 -87.5t-148.5 -32.5q-177 0 -279 99t-102 249zM373 299q0 -72 47 -72q49 0 49 72v408q0 71 -49 71q-47 0 -47 -71v-408zM879 602h98v105q0 71 -49 71t-49 -71v-105z" />
<glyph horiz-adv-x="722" />
<glyph horiz-adv-x="1032" d="M-20 1364h430l125 -444l108 444h414l-342 -852v-512h-410v530zM248 1436v256h244v-256h-244zM561 1436v256h244v-256h-244z" />
<glyph unicode="&#xa1;" horiz-adv-x="456" d="M53 176l105 408h133l104 -408v-534h-342v534zM80 694v312h293v-312h-293z" />
<glyph unicode="&#xa2;" horiz-adv-x="868" d="M59 524v314q0 140 69 233.5t196 124.5v168h231v-166q265 -57 256 -424h-307v103q0 43 -12 61t-41 18q-31 0 -43.5 -16.5t-12.5 -60.5v-396q0 -43 12.5 -60t43.5 -17q29 0 41 19t12 62v103h307q9 -369 -256 -426v-164h-231v166q-127 31 -196 125t-69 233z" />
<glyph unicode="&#xa3;" horiz-adv-x="1124" d="M-8 174q0 96 66.5 157.5t185.5 61.5q63 0 127 -22q28 40 28 80q0 53 -30 96h-279v221h201q-25 48 -38 77t-23.5 75t-10.5 98q0 72 25 138.5t73.5 121.5t131 88t188.5 33q214 0 312 -112.5t98 -313.5v-41h-334v61q0 88 -60 88q-63 0 -63 -90q0 -87 82 -223h274v-221h-225 q4 -32 4 -45q0 -65 -34.5 -123t-100.5 -100q47 -31 112 -31q59 0 83 32t24 99v51h293v-129q0 -143 -90 -239.5t-250 -96.5q-185 0 -332 113q-84 -113 -215 -113q-97 0 -160 60.5t-63 148.5zM168 174q0 -19 16 -33t45 -14q25 0 50.5 14t39.5 39q-37 43 -92 43 q-28 0 -43.5 -14t-15.5 -35z" />
<glyph unicode="&#xa4;" horiz-adv-x="1009" d="M41 414v536q0 96 29.5 176.5t88 142t153 96t216.5 34.5q216 0 335.5 -120t119.5 -306v-68h-385v78q0 47 -15.5 72.5t-62.5 25.5q-45 0 -61.5 -26t-16.5 -72v-176h412v-250h-412v-176q0 -46 16.5 -72t61.5 -26q47 0 62.5 25.5t15.5 72.5v78h385v-68q0 -185 -119.5 -305.5 t-335.5 -120.5q-122 0 -216.5 34.5t-153 96t-88 142t-29.5 176.5z" />
<glyph unicode="&#xa5;" horiz-adv-x="1079" d="M39 1364h389l125 -455l111 455h374l-241 -602h192v-215h-268v-105h268v-215h-268v-227h-377v227h-256v215h256v105h-256v215h184z" />
<glyph unicode="&#xa7;" horiz-adv-x="987" d="M55 57v29h336v-43q0 -34 22.5 -57t63.5 -23q86 0 86 82q0 28 -28 54t-72.5 49t-98.5 47.5t-108 56t-98.5 68t-72.5 89.5t-28 115q0 80 36.5 147.5t101.5 112.5q-56 43 -91.5 111t-35.5 145q0 71 25.5 134.5t75.5 114.5t132 80.5t186 29.5q113 0 198 -31.5t134 -86 t72.5 -119.5t23.5 -140v-31h-335v45q0 35 -20 57.5t-60 22.5q-80 0 -80 -82q0 -28 29 -54.5t75 -50.5t102 -50t112 -58.5t102 -70t75 -90.5t29 -115q0 -152 -145 -254q123 -101 123 -246q0 -156 -109 -260t-315 -104q-112 0 -199.5 31.5t-139.5 85.5t-78 119.5t-26 139.5z M362 600q0 -27 13.5 -48.5t66.5 -57t154 -82.5q45 11 45 59q0 20 -7 36t-30 38.5t-71 50t-125 63.5q-46 -11 -46 -59z" />
<glyph unicode="&#xa8;" horiz-adv-x="585" d="M14 1108v256h244v-256h-244zM328 1108v256h243v-256h-243z" />
<glyph unicode="&#xa9;" horiz-adv-x="1492" d="M31 682q0 196 92.5 360t257.5 260.5t367 96.5q151 0 284 -57t227 -153.5t148.5 -228.5t54.5 -278t-54.5 -278t-148.5 -228.5t-227 -153.5t-284 -57q-202 0 -367 96.5t-257.5 260.5t-92.5 360zM143 682q0 -169 76 -309t215.5 -222.5t313.5 -82.5t312.5 82.5t214 222.5 t75.5 309t-75.5 309.5t-214 223.5t-312.5 83t-313.5 -83t-215.5 -223.5t-76 -309.5zM467 565v244q0 114 82.5 185t212.5 71t203 -62.5t73 -168.5v-56h-200v43q0 72 -72 72q-70 0 -70 -72v-274q0 -32 20 -49t50 -17q34 0 53 16.5t19 47.5v51h198v-64q0 -101 -76 -162 t-196 -61q-133 0 -215 71t-82 185z" />
<glyph unicode="&#xaa;" horiz-adv-x="710" d="M31 827v7q0 98 80 153.5t256 95.5v86q0 22 -5.5 32.5t-25.5 10.5q-19 0 -23 -20.5t-4 -79.5h-252q-3 134 69 209.5t222 75.5q153 0 222 -67.5t69 -180.5v-289q0 -21 11.5 -29t37.5 -8v-188h-110q-67 0 -99 22t-51 80q-54 -110 -188 -110q-101 0 -155 51.5t-54 148.5z M301 842q0 -58 31 -58q23 0 29 12t6 38v139q-38 -11 -52 -34t-14 -62v-35z" />
<glyph unicode="&#xab;" horiz-adv-x="960" d="M33 305v184q234 75 295 306h131q0 -148 -35 -240.5t-125 -157.5q90 -65 125 -157t35 -240h-131q-60 227 -295 305zM496 305v184q234 75 295 306h131q0 -148 -35 -240.5t-125 -157.5q90 -65 125 -157t35 -240h-131q-60 227 -295 305z" />
<glyph unicode="&#xac;" horiz-adv-x="909" d="M68 463l217 217l-217 219l170 168l219 -217l217 217l168 -166l-219 -217l219 -219l-170 -170l-219 219l-217 -219z" />
<glyph unicode="&#xad;" horiz-adv-x="563" d="M20 459v266h523v-266h-523z" />
<glyph unicode="&#xae;" horiz-adv-x="1492" d="M31 682q0 196 92.5 360t257.5 260.5t367 96.5q151 0 284 -57t227 -153.5t148.5 -228.5t54.5 -278t-54.5 -278t-148.5 -228.5t-227 -153.5t-284 -57q-202 0 -367 96.5t-257.5 260.5t-92.5 360zM143 682q0 -169 76 -309t215.5 -222.5t313.5 -82.5t312.5 82.5t214 222.5 t75.5 309t-75.5 309.5t-214 223.5t-312.5 83t-313.5 -83t-215.5 -223.5t-76 -309.5zM492 330v714h346q102 0 157.5 -48.5t55.5 -129.5v-65q0 -94 -99 -125q51 -11 77 -44.5t26 -74.5v-108q0 -63 28 -117v-2h-192q-23 0 -37 33t-14 77v107q0 55 -49 55h-74v-272h-225z M717 727h63q54 0 54 43v72q0 43 -54 43h-63v-158z" />
<glyph unicode="&#xaf;" horiz-adv-x="585" d="M6 1147v194h574v-194h-574z" />
<glyph unicode="&#xb0;" horiz-adv-x="614" d="M8 1108q0 119 84.5 205t214.5 86t214.5 -86t84.5 -205t-84.5 -205t-214.5 -86t-214.5 86t-84.5 205zM176 1108q0 -62 35 -100.5t96 -38.5q60 0 94.5 38t34.5 101t-34.5 101t-94.5 38q-61 0 -96 -38.5t-35 -100.5z" />
<glyph unicode="&#xb1;" horiz-adv-x="1038" d="M49 0v991h940v-991h-940zM154 100h731v791h-731v-791z" />
<glyph unicode="&#xb4;" horiz-adv-x="458" d="M61 1118l89 307h325l-205 -307h-209z" />
<glyph unicode="&#xb5;" horiz-adv-x="638" d="M10 745v248h142v181l333 73v-254h156v-248h-156v-430q0 -183 66 -315h-356q-31 60 -43.5 131.5t-12.5 183.5v430h-129z" />
<glyph unicode="&#xb6;" horiz-adv-x="1179" d="M47 846v33q0 216 135.5 350.5t364.5 134.5h567v-1671h-184v1413h-109v-1413h-184v669h-90q-229 0 -364.5 134.5t-135.5 349.5zM481 758q0 -162 113 -162h43v510h-43q-113 0 -113 -164v-184z" />
<glyph unicode="&#xb7;" horiz-adv-x="417" d="M59 516v328h299v-328h-299z" />
<glyph unicode="&#xb8;" horiz-adv-x="421" d="M6 -188l184 243l80 -55l-106 -139q40 28 84 28q99 0 155 -49.5t56 -142.5q0 -102 -59 -160.5t-181 -58.5q-53 0 -80 10v106h35q41 0 55.5 23.5t14.5 65.5v12q0 86 -70 86q-40 0 -82 -31z" />
<glyph unicode="&#xba;" horiz-adv-x="638" d="M18 901v223q0 120 79.5 196.5t221.5 76.5t222 -76.5t80 -196.5v-223q0 -121 -80 -196.5t-222 -75.5t-221.5 75.5t-79.5 196.5zM285 877q0 -54 34 -54q35 0 35 54v272q0 51 -35 51q-34 0 -34 -51v-272z" />
<glyph unicode="&#xbb;" horiz-adv-x="956" d="M33 0q0 148 35 240t125 157q-90 65 -125 157.5t-35 240.5h131q61 -231 295 -306v-184q-235 -78 -295 -305h-131zM496 0q0 148 34.5 240t124.5 157q-90 65 -124.5 157.5t-34.5 240.5h131q61 -231 295 -306v-184q-235 -78 -295 -305h-131z" />
<glyph unicode="&#xbf;" horiz-adv-x="839" d="M-4 -33q0 117 53 208t172 185q69 55 95 108.5t26 115.5h258q0 -127 -33 -212.5t-123 -181.5q-92 -98 -92 -184q0 -94 76 -94q78 0 78 108v89h332v-101q0 -176 -107.5 -288.5t-308.5 -112.5q-208 0 -317 100t-109 260zM326 694v312h295v-312h-295z" />
<glyph unicode="&#xc0;" d="M-20 0l276 1364h471l270 -1364h-403l-27 190h-184l-33 -190h-370zM186 1753h326l88 -307h-207zM424 442h111l-48 410z" />
<glyph unicode="&#xc1;" d="M-20 0l276 1364h471l270 -1364h-403l-27 190h-184l-33 -190h-370zM352 1446l88 307h326l-205 -307h-209zM424 442h111l-48 410z" />
<glyph unicode="&#xc2;" d="M-20 0l276 1364h471l270 -1364h-403l-27 190h-184l-33 -190h-370zM162 1454v84q53 0 100.5 53.5t75.5 153.5h287q27 -100 74.5 -153.5t101.5 -53.5v-84q-43 -14 -101 -14q-93 0 -147 39t-78 131q-24 -91 -78.5 -130.5t-146.5 -39.5q-45 0 -88 14zM424 442h111l-48 410z " />
<glyph unicode="&#xc3;" d="M-20 0l276 1364h471l270 -1364h-403l-27 190h-184l-33 -190h-370zM160 1573q0 83 49.5 139.5t138.5 56.5q51 0 103.5 -21.5t92.5 -43t60 -21.5q58 0 58 54v24h120q29 -43 29 -108q0 -84 -46 -139.5t-142 -55.5q-50 0 -102.5 21.5t-92.5 43t-61 21.5q-58 0 -58 -53v-25 h-119q-30 40 -30 107zM424 442h111l-48 410z" />
<glyph unicode="&#xc4;" d="M-20 0l276 1364h471l270 -1364h-403l-27 190h-184l-33 -190h-370zM205 1436v256h244v-256h-244zM424 442h111l-48 410zM518 1436v256h244v-256h-244z" />
<glyph unicode="&#xc5;" d="M-20 0l276 1364h109q-84 59 -84 166q0 84 56 143.5t152 59.5t151.5 -59.5t55.5 -143.5q0 -109 -84 -166h115l270 -1364h-403l-27 190h-184l-33 -190h-370zM412 1530q0 -36 20.5 -59t56.5 -23q35 0 55.5 23t20.5 59q0 37 -20.5 60.5t-55.5 23.5q-36 0 -56.5 -23t-20.5 -61 zM424 442h111l-48 410z" />
<glyph unicode="&#xc6;" horiz-adv-x="1480" d="M-20 0l450 1364h1020v-315h-414v-209h264v-289h-264v-219h414v-332h-825v190h-209l-56 -190h-380zM485 455h140v471z" />
<glyph unicode="&#xc7;" horiz-adv-x="1028" d="M41 414v536q0 197 132 323t374 126q216 0 335 -120t119 -306v-137h-383v147q0 47 -16 72.5t-63 25.5q-45 0 -61.5 -26t-16.5 -72v-602q0 -46 16.5 -72t61.5 -26q47 0 63 25.5t16 72.5v147h383v-137q0 -181 -114 -300.5t-322 -125.5l-80 -104q40 28 84 28q99 0 155 -49.5 t56 -142.5q0 -102 -58.5 -160.5t-180.5 -58.5q-53 0 -80 10v106h35q41 0 55 23t14 66v12q0 86 -69 86q-40 0 -82 -31l-86 62l121 159q-195 26 -301.5 147t-106.5 296z" />
<glyph unicode="&#xc8;" horiz-adv-x="905" d="M51 0v1364h826v-315h-414v-209h264v-289h-264v-219h414v-332h-826zM186 1753h326l88 -307h-207z" />
<glyph unicode="&#xc9;" horiz-adv-x="905" d="M51 0v1364h826v-315h-414v-209h264v-289h-264v-219h414v-332h-826zM336 1446l88 307h326l-205 -307h-209z" />
<glyph unicode="&#xca;" horiz-adv-x="905" d="M51 0v1364h826v-315h-414v-209h264v-289h-264v-219h414v-332h-826zM150 1454v84q53 0 100.5 53.5t75.5 153.5h286q27 -100 74.5 -153.5t101.5 -53.5v-84q-43 -14 -100 -14q-93 0 -147 39t-78 131q-24 -91 -78.5 -130.5t-146.5 -39.5q-45 0 -88 14z" />
<glyph unicode="&#xcb;" horiz-adv-x="905" d="M51 0v1364h826v-315h-414v-209h264v-289h-264v-219h414v-332h-826zM186 1436v256h244v-256h-244zM500 1436v256h243v-256h-243z" />
<glyph unicode="&#xcc;" horiz-adv-x="512" d="M-29 1753h326l88 -307h-207zM51 0v1364h410v-1364h-410z" />
<glyph unicode="&#xcd;" horiz-adv-x="512" d="M51 0v1364h410v-1364h-410zM127 1446l88 307h326l-205 -307h-209z" />
<glyph unicode="&#xce;" horiz-adv-x="512" d="M-55 1454v84q53 0 100.5 53.5t75.5 153.5h287q27 -100 74.5 -153.5t101.5 -53.5v-84q-43 -14 -101 -14q-93 0 -147 39t-78 131q-24 -91 -78.5 -130.5t-146.5 -39.5q-45 0 -88 14zM51 0v1364h410v-1364h-410z" />
<glyph unicode="&#xcf;" horiz-adv-x="512" d="M-23 1436v256h244v-256h-244zM51 0v1364h410v-1364h-410zM291 1436v256h244v-256h-244z" />
<glyph unicode="&#xd0;" horiz-adv-x="1085" d="M-12 563v238h96v563h489q122 0 214.5 -34t149 -95t84.5 -141.5t28 -178.5v-501q0 -198 -116.5 -306t-359.5 -108h-489v563h-96zM494 313h53q53 0 72.5 29t19.5 90v500q0 61 -19.5 91t-72.5 30h-53v-252h81v-238h-81v-250z" />
<glyph unicode="&#xd1;" horiz-adv-x="1083" d="M51 0v1364h355l196 -457l68 -159v616h362v-1364h-340l-190 444l-86 197v-641h-365zM221 1573q0 83 49.5 139.5t139.5 56.5q51 0 103.5 -21.5t92.5 -43t60 -21.5q57 0 57 54v24h121q28 -42 28 -108q0 -84 -46 -139.5t-142 -55.5q-50 0 -102.5 21.5t-92.5 43t-61 21.5 q-57 0 -57 -53v-25h-119q-31 42 -31 107z" />
<glyph unicode="&#xd2;" horiz-adv-x="1056" d="M41 391v582q0 181 134 302.5t353 121.5q218 0 353 -121.5t135 -302.5v-582q0 -182 -134.5 -304t-353.5 -122q-220 0 -353.5 121.5t-133.5 304.5zM236 1774h325l88 -308h-207zM461 354q0 -34 17.5 -52.5t49.5 -18.5t50 18.5t18 52.5v656q0 33 -18 52t-50 19t-49.5 -19 t-17.5 -52v-656z" />
<glyph unicode="&#xd3;" horiz-adv-x="1056" d="M41 391v582q0 181 134 302.5t353 121.5q218 0 353 -121.5t135 -302.5v-582q0 -182 -134.5 -304t-353.5 -122q-220 0 -353.5 121.5t-133.5 304.5zM401 1466l88 308h326l-205 -308h-209zM461 354q0 -34 17.5 -52.5t49.5 -18.5t50 18.5t18 52.5v656q0 33 -18 52t-50 19 t-49.5 -19t-17.5 -52v-656z" />
<glyph unicode="&#xd4;" horiz-adv-x="1056" d="M41 391v582q0 181 134 302.5t353 121.5q218 0 353 -121.5t135 -302.5v-582q0 -182 -134.5 -304t-353.5 -122q-220 0 -353.5 121.5t-133.5 304.5zM217 1466v84q53 0 100.5 53.5t75.5 153.5h287q27 -100 74.5 -153.5t101.5 -53.5v-84q-43 -14 -100 -14q-93 0 -147.5 39 t-78.5 131q-24 -91 -78.5 -130.5t-146.5 -39.5q-45 0 -88 14zM461 354q0 -34 17.5 -52.5t49.5 -18.5t50 18.5t18 52.5v656q0 33 -18 52t-50 19t-49.5 -19t-17.5 -52v-656z" />
<glyph unicode="&#xd5;" horiz-adv-x="1056" d="M41 391v582q0 181 134 302.5t353 121.5q218 0 353 -121.5t135 -302.5v-582q0 -182 -134.5 -304t-353.5 -122q-220 0 -353.5 121.5t-133.5 304.5zM201 1583q0 83 49.5 140t138.5 57q51 0 103.5 -21.5t92.5 -43t60 -21.5q57 0 57 53v25h121q29 -44 29 -109 q0 -84 -46 -139.5t-142 -55.5q-50 0 -102.5 21.5t-92.5 43t-61 21.5q-58 0 -58 -53v-24h-119q-30 40 -30 106zM461 354q0 -34 17.5 -52.5t49.5 -18.5t50 18.5t18 52.5v656q0 33 -18 52t-50 19t-49.5 -19t-17.5 -52v-656z" />
<glyph unicode="&#xd6;" horiz-adv-x="1056" d="M41 391v582q0 181 134 302.5t353 121.5q218 0 353 -121.5t135 -302.5v-582q0 -182 -134.5 -304t-353.5 -122q-220 0 -353.5 121.5t-133.5 304.5zM250 1456v256h244v-256h-244zM461 354q0 -34 17.5 -52.5t49.5 -18.5t50 18.5t18 52.5v656q0 33 -18 52t-50 19t-49.5 -19 t-17.5 -52v-656zM563 1456v256h244v-256h-244z" />
<glyph unicode="&#xd7;" horiz-adv-x="909" d="M68 463l217 217l-217 219l170 168l219 -217l217 217l168 -166l-219 -217l219 -219l-170 -170l-219 219l-217 -219z" />
<glyph unicode="&#xd8;" horiz-adv-x="1056" d="M-14 6l114 170q-59 95 -59 215v582q0 181 134 302.5t353 121.5q189 0 322 -99l96 144l125 -86q-49 -72 -115 -170q60 -94 60 -213v-582q0 -182 -134.5 -304t-353.5 -122q-190 0 -323 96q0 1 -23.5 -34t-47.5 -70l-23 -35zM461 354q0 -34 17.5 -52.5t49.5 -18.5t50 18.5 t18 52.5v291q0 1 -34 -49.5t-68 -101.5l-33 -50v-90zM461 717q9 13 22.5 34t43.5 65t49.5 73.5t19.5 28.5v92q0 33 -18 52t-50 19t-49.5 -19t-17.5 -52v-293z" />
<glyph unicode="&#xd9;" horiz-adv-x="1048" d="M49 375v989h416v-993q0 -34 17.5 -54t47.5 -20q33 0 50.5 20t17.5 54v993h401v-989q0 -190 -118.5 -300t-350.5 -110q-231 0 -356 111t-125 299zM225 1753h326l88 -307h-207z" />
<glyph unicode="&#xda;" horiz-adv-x="1048" d="M49 375v989h416v-993q0 -34 17.5 -54t47.5 -20q33 0 50.5 20t17.5 54v993h401v-989q0 -190 -118.5 -300t-350.5 -110q-231 0 -356 111t-125 299zM410 1446l88 307h325l-205 -307h-208z" />
<glyph unicode="&#xdb;" horiz-adv-x="1048" d="M49 375v989h416v-993q0 -34 17.5 -54t47.5 -20q33 0 50.5 20t17.5 54v993h401v-989q0 -190 -118.5 -300t-350.5 -110q-231 0 -356 111t-125 299zM219 1454v84q53 0 100.5 53.5t75.5 153.5h287q27 -100 74.5 -153.5t101.5 -53.5v-84q-43 -14 -100 -14q-93 0 -147.5 39 t-78.5 131q-24 -91 -78.5 -130.5t-146.5 -39.5q-45 0 -88 14z" />
<glyph unicode="&#xdc;" horiz-adv-x="1048" d="M49 375v989h416v-993q0 -34 17.5 -54t47.5 -20q33 0 50.5 20t17.5 54v993h401v-989q0 -190 -118.5 -300t-350.5 -110q-231 0 -356 111t-125 299zM250 1436v256h244v-256h-244zM563 1436v256h244v-256h-244z" />
<glyph unicode="&#xdd;" horiz-adv-x="1032" d="M-20 1364h430l125 -444l108 444h414l-342 -852v-512h-410v530zM403 1446l89 307h325l-205 -307h-209z" />
<glyph unicode="&#xde;" horiz-adv-x="995" d="M51 0v1364h412v-203h145q162 0 264.5 -96.5t102.5 -261.5v-182q0 -165 -102.5 -262t-264.5 -97h-145v-262h-412zM463 528h61q64 0 64 68v205q0 69 -64 69h-61v-342z" />
<glyph unicode="&#xdf;" horiz-adv-x="847" d="M25 0v995q0 168 110 268.5t293 100.5q100 0 178.5 -27.5t126 -75t72 -108t24.5 -131.5v-31q0 -94 -42.5 -168.5t-129.5 -103.5q103 -30 137.5 -86.5t34.5 -159.5v-199q0 -82 -22.5 -140.5t-62.5 -90t-86 -45.5t-101 -14q-78 0 -143 26v195q41 0 60.5 23.5t19.5 74.5v227 q0 53 -16 75t-58 22v198q42 0 58 17.5t16 66.5v121q0 88 -62 88q-63 0 -63 -88v-1030h-344z" />
<glyph unicode="&#xe0;" horiz-adv-x="835" d="M8 254v10q0 133 101.5 207t330.5 131v123q0 30 -8.5 44.5t-34.5 14.5q-14 0 -22.5 -7t-12 -28.5t-4 -40t-0.5 -61.5h-315q-9 377 373 377q179 0 273.5 -91.5t94.5 -238.5v-413q0 -28 8 -40t33 -12v-237h-106q-87 0 -131.5 31.5t-71.5 107.5q-71 -147 -244 -147 q-125 0 -194.5 70t-69.5 200zM135 1405h326l88 -307h-207zM344 270q0 -77 47 -77q30 0 39.5 16t9.5 49v197q-54 -17 -75 -49t-21 -87v-49z" />
<glyph unicode="&#xe1;" horiz-adv-x="835" d="M8 254v10q0 133 101.5 207t330.5 131v123q0 30 -8.5 44.5t-34.5 14.5q-14 0 -22.5 -7t-12 -28.5t-4 -40t-0.5 -61.5h-315q-9 377 373 377q179 0 273.5 -91.5t94.5 -238.5v-413q0 -28 8 -40t33 -12v-237h-106q-87 0 -131.5 31.5t-71.5 107.5q-71 -147 -244 -147 q-125 0 -194.5 70t-69.5 200zM279 1098l88 307h325l-205 -307h-208zM344 270q0 -77 47 -77q30 0 39.5 16t9.5 49v197q-54 -17 -75 -49t-21 -87v-49z" />
<glyph unicode="&#xe2;" horiz-adv-x="835" d="M8 254v10q0 133 101.5 207t330.5 131v123q0 30 -8.5 44.5t-34.5 14.5q-14 0 -22.5 -7t-12 -28.5t-4 -40t-0.5 -61.5h-315q-9 377 373 377q179 0 273.5 -91.5t94.5 -238.5v-413q0 -28 8 -40t33 -12v-237h-106q-87 0 -131.5 31.5t-71.5 107.5q-71 -147 -244 -147 q-125 0 -194.5 70t-69.5 200zM92 1087v84q53 0 100.5 53.5t75.5 153.5h287q27 -100 74.5 -153.5t101.5 -53.5v-84q-43 -14 -100 -14q-93 0 -147 39t-78 131q-24 -91 -79 -130.5t-147 -39.5q-45 0 -88 14zM344 270q0 -77 47 -77q30 0 39.5 16t9.5 49v197q-54 -17 -75 -49 t-21 -87v-49z" />
<glyph unicode="&#xe3;" horiz-adv-x="835" d="M8 254v10q0 133 101.5 207t330.5 131v123q0 30 -8.5 44.5t-34.5 14.5q-14 0 -22.5 -7t-12 -28.5t-4 -40t-0.5 -61.5h-315q-9 377 373 377q179 0 273.5 -91.5t94.5 -238.5v-413q0 -28 8 -40t33 -12v-237h-106q-87 0 -131.5 31.5t-71.5 107.5q-71 -147 -244 -147 q-125 0 -194.5 70t-69.5 200zM90 1225q0 83 49.5 139.5t139.5 56.5q51 0 103.5 -21.5t92.5 -43t60 -21.5q57 0 57 54v24h121q28 -42 28 -108q0 -84 -46 -139.5t-142 -55.5q-50 0 -102.5 21.5t-92.5 43t-61 21.5q-57 0 -57 -53v-25h-119q-31 42 -31 107zM344 270 q0 -77 47 -77q30 0 39.5 16t9.5 49v197q-54 -17 -75 -49t-21 -87v-49z" />
<glyph unicode="&#xe4;" horiz-adv-x="835" d="M8 254v10q0 133 101.5 207t330.5 131v123q0 30 -8.5 44.5t-34.5 14.5q-14 0 -22.5 -7t-12 -28.5t-4 -40t-0.5 -61.5h-315q-9 377 373 377q179 0 273.5 -91.5t94.5 -238.5v-413q0 -28 8 -40t33 -12v-237h-106q-87 0 -131.5 31.5t-71.5 107.5q-71 -147 -244 -147 q-125 0 -194.5 70t-69.5 200zM135 1087v256h244v-256h-244zM344 270q0 -77 47 -77q30 0 39.5 16t9.5 49v197q-54 -17 -75 -49t-21 -87v-49zM449 1087v256h243v-256h-243z" />
<glyph unicode="&#xe5;" horiz-adv-x="835" />
<glyph unicode="&#xe6;" horiz-adv-x="1306" d="M8 252v10q0 133 101.5 207t330.5 131v123q0 30 -8.5 44.5t-34.5 14.5q-14 0 -22.5 -7t-12 -28.5t-4 -40t-0.5 -61.5h-315q-4 181 84 279t254 98q88 0 157.5 -31.5t110.5 -85.5q40 53 108 85t146 32q176 0 276.5 -99t100.5 -251v-215h-430v-158q0 -38 9.5 -56t43.5 -18 q38 0 48 27t10 121h319q0 -201 -95.5 -296t-281.5 -95q-81 0 -157.5 33.5t-114.5 86.5q-105 -120 -291 -120q-149 0 -240.5 73.5t-91.5 196.5zM344 268q0 -78 47 -78q30 0 39.5 16.5t9.5 49.5v197q-54 -17 -75 -49t-21 -87v-49zM850 600h98v105q0 71 -49 71t-49 -71v-105z " />
<glyph unicode="&#xe7;" horiz-adv-x="819" d="M37 332v342q0 157 101.5 253.5t279.5 96.5q195 0 285 -105t85 -323h-307v102q0 43 -12 61.5t-41 18.5q-31 0 -43 -17t-12 -61v-395q0 -43 12 -60.5t43 -17.5q29 0 41 18.5t12 63.5v103h307q5 -208 -75 -312t-254 -114l-94 -125q40 28 84 28q99 0 154.5 -49.5t55.5 -142.5 q0 -102 -58.5 -160.5t-180.5 -58.5q-53 0 -80 10v106h35q41 0 55 23t14 66v12q0 86 -69 86q-40 0 -82 -31l-86 62l133 178q-143 20 -223 112t-80 230z" />
<glyph unicode="&#xe8;" horiz-adv-x="831" d="M37 332v342q0 150 103.5 249t279.5 99q177 0 280 -98.5t103 -249.5v-215h-432v-158q0 -38 9.5 -56t43.5 -18q37 0 47 27t10 121h322q0 -391 -383 -391q-177 0 -280 98.5t-103 249.5zM117 1405h325l88 -307h-206zM371 602h98v105q0 71 -49 71t-49 -71v-105z" />
<glyph unicode="&#xe9;" horiz-adv-x="831" d="M37 332v342q0 150 103.5 249t279.5 99q177 0 280 -98.5t103 -249.5v-215h-432v-158q0 -38 9.5 -56t43.5 -18q37 0 47 27t10 121h322q0 -391 -383 -391q-177 0 -280 98.5t-103 249.5zM307 1098l88 307h326l-205 -307h-209zM371 602h98v105q0 71 -49 71t-49 -71v-105z" />
<glyph unicode="&#xea;" horiz-adv-x="831" d="M37 332v342q0 150 103.5 249t279.5 99q177 0 280 -98.5t103 -249.5v-215h-432v-158q0 -38 9.5 -56t43.5 -18q37 0 47 27t10 121h322q0 -391 -383 -391q-177 0 -280 98.5t-103 249.5zM104 1087v84q53 0 101 53.5t76 153.5h286q27 -100 74.5 -153.5t101.5 -53.5v-84 q-43 -14 -100 -14q-93 0 -147 39t-78 131q-24 -91 -78.5 -130.5t-146.5 -39.5q-46 0 -89 14zM371 602h98v105q0 71 -49 71t-49 -71v-105z" />
<glyph unicode="&#xeb;" horiz-adv-x="831" d="M37 332v342q0 150 103.5 249t279.5 99q177 0 280 -98.5t103 -249.5v-215h-432v-158q0 -38 9.5 -56t43.5 -18q37 0 47 27t10 121h322q0 -391 -383 -391q-177 0 -280 98.5t-103 249.5zM141 1087v256h244v-256h-244zM371 602h98v105q0 71 -49 71t-49 -71v-105zM455 1087v256 h243v-256h-243z" />
<glyph unicode="&#xec;" horiz-adv-x="436" />
<glyph unicode="&#xed;" horiz-adv-x="436" />
<glyph unicode="&#xee;" horiz-adv-x="436" />
<glyph unicode="&#xef;" horiz-adv-x="436" />
<glyph unicode="&#xf0;" horiz-adv-x="849" d="M37 330v358q0 133 73.5 215t182.5 82q61 0 105 -19t87 -61q0 105 -47 201l-100 -47l-59 104l92 45q-50 62 -121 115l280 41q31 -15 72 -47l103 49l59 -104l-76 -37q125 -174 125 -434v-461q0 -156 -116.5 -251t-276.5 -95q-168 0 -275.5 93.5t-107.5 252.5zM373 301 q0 -74 47 -74q49 0 49 74v389q0 74 -49 74q-47 0 -47 -74v-389z" />
<glyph unicode="&#xf1;" horiz-adv-x="876" d="M45 0v1006h297l12 -132q81 148 244 148q106 0 172 -67t66 -179v-776h-344v690q0 74 -48 74q-53 0 -53 -74v-690h-346zM106 1225q0 83 49.5 139.5t139.5 56.5q51 0 103.5 -21.5t92.5 -43t60 -21.5q57 0 57 54v24h121q29 -43 29 -108q0 -84 -46.5 -139.5t-142.5 -55.5 q-50 0 -102.5 21.5t-92.5 43t-61 21.5q-57 0 -57 -53v-25h-119q-31 42 -31 107z" />
<glyph unicode="&#xf2;" horiz-adv-x="841" d="M37 332v342q0 150 103.5 249t279.5 99q177 0 281 -99.5t104 -248.5v-342q0 -149 -104 -248.5t-281 -99.5q-176 0 -279.5 99t-103.5 249zM121 1405h325l89 -307h-207zM371 299q0 -72 49 -72t49 72v408q0 71 -49 71t-49 -71v-408z" />
<glyph unicode="&#xf3;" horiz-adv-x="841" d="M37 332v342q0 150 103.5 249t279.5 99q177 0 281 -99.5t104 -248.5v-342q0 -149 -104 -248.5t-281 -99.5q-176 0 -279.5 99t-103.5 249zM299 1098l88 307h326l-205 -307h-209zM371 299q0 -72 49 -72t49 72v408q0 71 -49 71t-49 -71v-408z" />
<glyph unicode="&#xf4;" horiz-adv-x="841" d="M37 332v342q0 150 103.5 249t279.5 99q177 0 281 -99.5t104 -248.5v-342q0 -149 -104 -248.5t-281 -99.5q-176 0 -279.5 99t-103.5 249zM106 1087v84q53 0 101 53.5t76 153.5h286q27 -100 74.5 -153.5t101.5 -53.5v-84q-43 -14 -100 -14q-93 0 -147 39t-78 131 q-24 -91 -78.5 -130.5t-146.5 -39.5q-46 0 -89 14zM371 299q0 -72 49 -72t49 72v408q0 71 -49 71t-49 -71v-408z" />
<glyph unicode="&#xf5;" horiz-adv-x="841" d="M37 332v342q0 150 103.5 249t279.5 99q177 0 281 -99.5t104 -248.5v-342q0 -149 -104 -248.5t-281 -99.5q-176 0 -279.5 99t-103.5 249zM98 1225q0 83 49.5 139.5t139.5 56.5q51 0 103.5 -21.5t92.5 -43t60 -21.5q57 0 57 54v24h121q29 -43 29 -108q0 -84 -46.5 -139.5 t-142.5 -55.5q-50 0 -102.5 21.5t-92.5 43t-61 21.5q-57 0 -57 -53v-25h-119q-31 42 -31 107zM371 299q0 -72 49 -72t49 72v408q0 71 -49 71t-49 -71v-408z" />
<glyph unicode="&#xf6;" horiz-adv-x="841" d="M37 332v342q0 150 103.5 249t279.5 99q177 0 281 -99.5t104 -248.5v-342q0 -149 -104 -248.5t-281 -99.5q-176 0 -279.5 99t-103.5 249zM141 1087v256h244v-256h-244zM371 299q0 -72 49 -72t49 72v408q0 71 -49 71t-49 -71v-408zM455 1087v256h243v-256h-243z" />
<glyph unicode="&#xf8;" horiz-adv-x="841" d="M16 -4l84 131q-63 88 -63 205v342q0 149 106 248.5t283 99.5q128 0 219 -57l78 118l102 -71l-86 -133q66 -87 66 -205v-342q0 -149 -104 -248.5t-281 -99.5q-134 0 -225 57l-76 -117zM371 299q0 -72 49 -72t49 72v164l-98 -152v-1v-1v-1v-9zM371 541l98 151v15 q0 71 -49 71t-49 -71v-166z" />
<glyph unicode="&#xf9;" horiz-adv-x="882" d="M45 229v777h344v-693q0 -73 49 -73q51 0 51 73v693h347v-1006h-297l-13 131q-81 -147 -243 -147q-107 0 -172.5 66.5t-65.5 178.5zM131 1405h326l88 -307h-207z" />
<glyph unicode="&#xfa;" horiz-adv-x="882" d="M45 229v777h344v-693q0 -73 49 -73q51 0 51 73v693h347v-1006h-297l-13 131q-81 -147 -243 -147q-107 0 -172.5 66.5t-65.5 178.5zM299 1098l88 307h326l-205 -307h-209z" />
<glyph unicode="&#xfb;" horiz-adv-x="882" d="M45 229v777h344v-693q0 -73 49 -73q51 0 51 73v693h347v-1006h-297l-13 131q-81 -147 -243 -147q-107 0 -172.5 66.5t-65.5 178.5zM123 1087v84q53 0 100.5 53.5t75.5 153.5h287q27 -100 74.5 -153.5t101.5 -53.5v-84q-43 -14 -100 -14q-93 0 -147.5 39t-78.5 131 q-24 -91 -78.5 -130.5t-146.5 -39.5q-45 0 -88 14z" />
<glyph unicode="&#xfc;" horiz-adv-x="882" d="M45 229v777h344v-693q0 -73 49 -73q51 0 51 73v693h347v-1006h-297l-13 131q-81 -147 -243 -147q-107 0 -172.5 66.5t-65.5 178.5zM162 1087v256h244v-256h-244zM475 1087v256h244v-256h-244z" />
<glyph unicode="&#xfd;" horiz-adv-x="847" d="M-10 1006h350l63 -420l23 -166l20 166l62 420h334l-236 -924q-57 -220 -144.5 -304.5t-260.5 -84.5h-135v270h43q66 0 89.5 15t34.5 59l3 8zM291 1098l88 307h326l-205 -307h-209z" />
<glyph unicode="&#xfe;" horiz-adv-x="858" d="M45 -301v1665h344v-416q43 42 84 59t102 17q108 0 177 -80t69 -203v-481q0 -134 -63 -206t-176 -72q-61 0 -105.5 16.5t-87.5 54.5v-354h-344zM389 313q0 -73 47 -73q49 0 49 73v377q0 74 -49 74q-47 0 -47 -74v-377z" />
<glyph unicode="&#xff;" horiz-adv-x="847" d="M-10 1006h350l63 -420l23 -166l20 166l62 420h334l-236 -924q-57 -220 -144.5 -304.5t-260.5 -84.5h-135v270h43q66 0 89.5 15t34.5 59l3 8zM141 1087v256h244v-256h-244zM455 1087v256h243v-256h-243z" />
<glyph unicode="&#x2000;" horiz-adv-x="890" />
<glyph unicode="&#x2001;" horiz-adv-x="1780" />
<glyph unicode="&#x2002;" horiz-adv-x="890" />
<glyph unicode="&#x2003;" horiz-adv-x="1780" />
<glyph unicode="&#x2004;" horiz-adv-x="593" />
<glyph unicode="&#x2005;" horiz-adv-x="445" />
<glyph unicode="&#x2006;" horiz-adv-x="296" />
<glyph unicode="&#x2007;" horiz-adv-x="296" />
<glyph unicode="&#x2008;" horiz-adv-x="222" />
<glyph unicode="&#x2009;" horiz-adv-x="356" />
<glyph unicode="&#x200a;" horiz-adv-x="98" />
<glyph unicode="&#x2010;" horiz-adv-x="563" d="M20 459v266h523v-266h-523z" />
<glyph unicode="&#x2011;" horiz-adv-x="563" d="M20 459v266h523v-266h-523z" />
<glyph unicode="&#x2012;" horiz-adv-x="563" d="M20 459v266h523v-266h-523z" />
<glyph unicode="&#x2013;" horiz-adv-x="1064" d="M20 459v266h1024v-266h-1024z" />
<glyph unicode="&#x2014;" horiz-adv-x="2088" d="M20 459v266h2048v-266h-2048z" />
<glyph unicode="&#x202f;" horiz-adv-x="356" />
<glyph unicode="&#x205f;" horiz-adv-x="445" />
<glyph unicode="&#x25fc;" horiz-adv-x="1003" d="M0 0v1004h1004v-1004h-1004z" />
<glyph unicode="&#xfb01;" horiz-adv-x="1083" d="M16 745v248h129v21q0 84 19.5 146t64 109t122.5 71t190 24h96v-242h-27q-70 0 -96.5 -25t-26.5 -83v-21h160v-248h-155v-745h-347v745h-129zM692 0v1006h346v-1006h-346zM692 1073v291h346v-291h-346z" />
<glyph unicode="&#xfb02;" horiz-adv-x="1083" d="M16 745v248h129v21q0 84 19.5 146t64 109t122.5 71t190 24h96v-242h-27q-70 0 -96.5 -25t-26.5 -83v-21h160v-248h-155v-745h-347v745h-129zM692 0v1364h346v-1364h-346z" />
</font>
</defs>
</svg>
